<svg width="350" height="350" viewBox="0 0 350 350" fill="none" xmlns="http://www.w3.org/2000/svg">
<path d="M0 24C0 10.7452 10.7452 0 24 0H326C339.255 0 350 10.7452 350 24V326C350 339.255 339.255 350 326 350H24C10.7452 350 0 339.255 0 326V24Z" fill="#DCE0E5"/>
<path d="M177.443 193.534C177.443 186.98 178.205 180.583 179.729 174.342C181.253 167.945 183.285 161.859 185.825 156.086C188.365 150.157 191.244 144.618 194.461 139.469C197.678 134.164 200.98 129.249 204.367 124.724C212.495 113.958 221.554 104.05 231.545 95H293.014L280.822 107.404C277.266 111.305 273.371 115.83 269.138 120.979C265.074 126.128 261.094 131.979 257.199 138.533C264.82 139.937 271.762 142.433 278.028 146.022C284.293 149.455 289.627 153.668 294.03 158.661C298.602 163.654 302.073 169.349 304.444 175.746C306.815 182.143 308 188.931 308 196.108C308 204.378 306.391 212.101 303.174 219.279C299.957 226.3 295.469 232.541 289.712 238.003C284.124 243.308 277.435 247.52 269.646 250.641C261.856 253.606 253.389 255.088 244.245 255.088C234.763 255.088 225.873 253.606 217.575 250.641C209.447 247.52 202.42 243.23 196.493 237.769C190.566 232.151 185.91 225.598 182.523 218.109C179.136 210.619 177.443 202.427 177.443 193.534ZM242.721 233.322C248.479 233.322 253.897 232.307 258.977 230.279C264.058 228.251 268.46 225.52 272.186 222.087C275.911 218.655 278.874 214.598 281.076 209.917C283.277 205.236 284.378 200.243 284.378 194.938C284.378 189.633 283.277 184.64 281.076 179.959C278.874 175.278 275.911 171.221 272.186 167.789C268.46 164.356 264.058 161.625 258.977 159.597C253.897 157.569 248.479 156.554 242.721 156.554C236.456 156.554 230.614 157.725 225.195 160.065C219.946 162.249 215.374 165.37 211.479 169.427C214.188 161.781 217.744 154.604 222.147 147.895C226.55 141.029 230.953 135.1 235.355 130.107C237.895 127.142 240.435 124.334 242.975 121.681C245.685 118.873 248.479 116.22 251.357 113.724H243.229C235.101 121.213 228.074 129.171 222.147 137.597C216.728 145.086 211.818 153.434 207.415 162.64C203.182 171.689 201.065 181.363 201.065 191.661C201.065 198.215 202.166 204.066 204.367 209.215C206.568 214.364 209.532 218.733 213.257 222.321C217.152 225.91 221.554 228.641 226.465 230.513C231.545 232.385 236.964 233.322 242.721 233.322Z" fill="#2D3142"/>
<path d="M124.575 170.574L105.947 148.841L136.166 116.76H169.283V254.815H124.575V170.574ZM149.206 238.256V133.318H143.41L127.473 150.29L130.578 153.809L143.824 140.355V238.256H149.206Z" fill="#2D3142"/>
<path d="M61.6281 170.574L43 148.841L73.219 116.76H106.336V254.815H61.6281V170.574ZM86.2586 238.256V133.318H80.4632L64.5258 150.29L67.6305 153.809L80.8772 140.355V238.256H86.2586Z" fill="#2D3142"/>
<circle cx="242.865" cy="194.933" r="23.1987" fill="#490fd2"/>
<path d="M235.962 186.268C235.962 184.728 237.628 183.766 238.962 184.536L254.376 193.435C255.709 194.205 255.709 196.129 254.376 196.899L238.962 205.799C237.628 206.568 235.962 205.606 235.962 204.067L235.962 186.268Z" fill="#ff74d4"/>
</svg>
