<svg width="265" height="161" viewBox="0 0 265 161" fill="none" xmlns="http://www.w3.org/2000/svg">
<path d="M134.443 98.5337C134.443 91.9804 135.205 85.5831 136.729 79.3419C138.253 72.9446 140.285 66.8594 142.825 61.0862C145.365 55.157 148.244 49.6179 151.461 44.4689C154.678 39.1638 157.98 34.2488 161.367 29.7239C169.495 18.9578 178.554 9.04981 188.545 0H250.014L237.822 12.4045C234.266 16.3053 230.371 20.8302 226.138 25.9792C222.074 31.1282 218.094 36.9794 214.199 43.5327C221.82 44.937 228.762 47.4335 235.028 51.0222C241.293 54.4549 246.627 58.6677 251.03 63.6607C255.602 68.6537 259.073 74.3489 261.444 80.7461C263.815 87.1434 265 93.9308 265 101.108C265 109.378 263.391 117.101 260.174 124.279C256.957 131.3 252.469 137.541 246.712 143.003C241.124 148.308 234.435 152.52 226.646 155.641C218.856 158.606 210.389 160.088 201.245 160.088C191.763 160.088 182.873 158.606 174.575 155.641C166.447 152.52 159.42 148.23 153.493 142.769C147.566 137.151 142.91 130.598 139.523 123.109C136.136 115.619 134.443 107.427 134.443 98.5337ZM199.721 138.322C205.479 138.322 210.897 137.307 215.977 135.279C221.058 133.251 225.46 130.52 229.186 127.087C232.911 123.655 235.874 119.598 238.076 114.917C240.277 110.236 241.378 105.243 241.378 99.938C241.378 94.6329 240.277 89.6399 238.076 84.959C235.874 80.278 232.911 76.2212 229.186 72.7885C225.46 69.3559 221.058 66.6253 215.977 64.5969C210.897 62.5685 205.479 61.5543 199.721 61.5543C193.456 61.5543 187.614 62.7245 182.195 65.065C176.946 67.2494 172.374 70.3701 168.479 74.4269C171.188 66.7813 174.744 59.6039 179.147 52.8946C183.55 46.0292 187.953 40.1 192.355 35.107C194.895 32.1424 197.435 29.3339 199.975 26.6813C202.685 23.8728 205.479 21.2202 208.357 18.7237H200.229C192.101 26.2132 185.074 34.1708 179.147 42.5965C173.728 50.086 168.818 58.4337 164.415 67.6395C160.182 76.6893 158.065 86.3633 158.065 96.6613C158.065 103.215 159.166 109.066 161.367 114.215C163.568 119.364 166.532 123.733 170.257 127.321C174.152 130.91 178.554 133.641 183.465 135.513C188.545 137.385 193.964 138.322 199.721 138.322Z" fill="#2D3142"/>
<path d="M81.5754 75.5741L62.9473 53.8413L93.1662 21.7595H126.283V159.815H81.5754V75.5741ZM106.206 143.256V38.3179H100.41L84.4731 55.2902L87.5778 58.8088L100.824 45.3551V143.256H106.206Z" fill="#2D3142"/>
<path d="M18.6281 75.5741L0 53.8413L30.219 21.7595H63.3356V159.815H18.6281V75.5741ZM43.2586 143.256V38.3179H37.4632L21.5258 55.2901L24.6305 58.8088L37.8772 45.3551V143.256H43.2586Z" fill="#2D3142"/>
<circle cx="199.865" cy="99.9327" r="23.1987" fill="#02CECB"/>
<path d="M192.962 91.2678C192.962 89.7282 194.628 88.7659 195.962 89.5357L211.376 98.4351C212.709 99.2049 212.709 101.129 211.376 101.899L195.962 110.799C194.628 111.568 192.962 110.606 192.962 109.067L192.962 91.2678Z" fill="white"/>
</svg>
